<svg width="4" height="1" viewBox="0 0 4 1" fill="none" xmlns="http://www.w3.org/2000/svg">
<path d="M2.35096 0.770338C2.169 0.76894 1.99159 0.71561 1.84128 0.617126C1.69111 0.715881 1.51361 0.769237 1.33161 0.770338C1.19892 0.76803 1.06816 0.739301 0.947624 0.685967C0.827084 0.632632 0.71938 0.555853 0.631323 0.460486C0.586654 0.411698 0.563548 0.348108 0.566911 0.283221C0.570275 0.218334 0.599844 0.157262 0.649338 0.112977C0.698832 0.0686914 0.764352 0.044681 0.831982 0.0460458C0.899612 0.0474105 0.964025 0.0740416 1.01154 0.120285C1.0493 0.167225 1.09777 0.205228 1.15321 0.231375C1.20865 0.257522 1.26959 0.271118 1.33136 0.271118C1.39312 0.271118 1.45406 0.257522 1.50951 0.231375C1.56495 0.205228 1.61341 0.167225 1.65118 0.120285C1.6755 0.0952337 1.70493 0.0752579 1.73763 0.0615995C1.77034 0.0479411 1.80562 0.0408936 1.84128 0.0408936C1.87695 0.0408936 1.91223 0.0479411 1.94493 0.0615995C1.97764 0.0752579 2.00707 0.0952337 2.03139 0.120285C2.06916 0.167225 2.11762 0.205228 2.17306 0.231375C2.2285 0.257522 2.28944 0.271118 2.35121 0.271118C2.41297 0.271118 2.47392 0.257522 2.52936 0.231375C2.5848 0.205228 2.63326 0.167225 2.67103 0.120285C2.71854 0.0740416 2.78295 0.0474105 2.85058 0.0460458C2.91821 0.044681 2.98373 0.0686914 3.03323 0.112977C3.08272 0.157262 3.11229 0.218334 3.11566 0.283221C3.11902 0.348108 3.09591 0.411698 3.05124 0.460486C2.96328 0.555839 2.85567 0.632614 2.73521 0.68595C2.61476 0.739286 2.48408 0.768022 2.35146 0.770338H2.35096Z" fill="#383842"/>
</svg>
